<svg width="936" height="936" viewBox="0 0 936 936" fill="none" xmlns="http://www.w3.org/2000/svg">
<g clip-path="url(#clip0_16_178)">
<path d="M0 6.10352e-05L0 936L936 936L936 6.10352e-05L0 6.10352e-05Z" fill="#121214"/>
<path d="M330.928 -3.05176e-05C288.288 37.96 245.648 75.816 223.392 128.96C201.136 182.104 199.264 250.432 165.464 286.624C131.664 322.816 65.832 326.872 0 330.928L0 -3.05176e-05H330.928Z" fill="#00875F"/>
<path d="M605.072 936C610.584 872.664 616.096 809.432 649.376 770.536C682.656 731.64 743.704 717.184 796.12 693.68C848.536 670.176 892.216 637.624 936 605.072V936H605.072Z" fill="#00875F"/>
</g>
<defs>
<clipPath id="clip0_16_178">
<rect width="936" height="936" fill="white" transform="matrix(0 -1 1 0 0 936)"/>
</clipPath>
</defs>
</svg>
